HIERARCHY
ROOT Hips
{
	OFFSET 0.000000 0.000000 0.000000
	CHANNELS 6 Xposition Yposition Zposition Zrotation Yrotation Xrotation 
	JOINT LHipJoint
	{
		OFFSET 0.000000 0.000000 0.000000
		CHANNELS 3 Zrotation Yrotation Xrotation
		JOINT LeftUpLeg
		{
			OFFSET 1.363060 -1.794630 0.839290
			CHANNELS 3 Zrotation Yrotation Xrotation
			JOINT LeftLeg
			{
				OFFSET 2.448110 -6.726130 0.000000
				CHANNELS 3 Zrotation Yrotation Xrotation
				JOINT LeftFoot
				{
					OFFSET 2.562200 -7.039590 0.000000
					CHANNELS 3 Zrotation Yrotation Xrotation
					JOINT LeftToeBase
					{
						OFFSET 0.157640 -0.433110 2.322550
						CHANNELS 3 Zrotation Yrotation Xrotation
						End Site
						{
							OFFSET 0.000000 0.000000 0.000000
						}
					}
				}
			}
		}
	}
	JOINT RHipJoint
	{
		OFFSET 0.000000 0.000000 0.000000
		CHANNELS 3 Zrotation Yrotation Xrotation
		JOINT RightUpLeg
		{
			OFFSET -1.305520 -1.794630 0.839290
			CHANNELS 3 Zrotation Yrotation Xrotation
			JOINT RightLeg
			{
				OFFSET -2.542530 -6.985550 0.000000
				CHANNELS 3 Zrotation Yrotation Xrotation
				JOINT RightFoot
				{
					OFFSET -2.568260 -7.056230 0.000000
					CHANNELS 3 Zrotation Yrotation Xrotation
					JOINT RightToeBase
					{
						OFFSET -0.164730 -0.452590 2.363150
						CHANNELS 3 Zrotation Yrotation Xrotation
						End Site
						{
							OFFSET 0.000000 0.000000 0.000000
						}
					}
				}
			}
		}
	}
	JOINT LowerBack
	{
		OFFSET 0.000000 0.000000 0.000000
		CHANNELS 3 Zrotation Yrotation Xrotation
		JOINT Spine
		{
			OFFSET 0.028270 2.035590 -0.193380
			CHANNELS 3 Zrotation Yrotation Xrotation
			JOINT Spine1
			{
				OFFSET 0.056720 2.048850 -0.042750
				CHANNELS 3 Zrotation Yrotation Xrotation
				JOINT Neck
				{
					OFFSET 0.000000 0.000000 0.000000
					CHANNELS 3 Zrotation Yrotation Xrotation
					JOINT Neck1
					{
						OFFSET -0.054170 1.746240 0.172020
						CHANNELS 3 Zrotation Yrotation Xrotation
						JOINT Head
						{
							OFFSET 0.104070 1.761360 -0.123970
							CHANNELS 3 Zrotation Yrotation Xrotation
							End Site
							{
								OFFSET 0.000000 0.000000 0.000000
							}
						}
					}
				}
				JOINT LeftShoulder
				{
					OFFSET 0.000000 0.000000 0.000000
					CHANNELS 3 Zrotation Yrotation Xrotation
					JOINT LeftArm
					{
						OFFSET 3.362410 1.200890 -0.311210
						CHANNELS 3 Zrotation Yrotation Xrotation
						JOINT LeftForeArm
						{
							OFFSET 4.983000 -0.000000 -0.000000
							CHANNELS 3 Zrotation Yrotation Xrotation
							JOINT LeftHand
							{
								OFFSET 3.483560 -0.000000 -0.000000
								CHANNELS 3 Zrotation Yrotation Xrotation
								JOINT LeftFingerBase
								{
									OFFSET 0.000000 0.000000 0.000000
									CHANNELS 3 Zrotation Yrotation Xrotation
									JOINT LeftHandIndex1
									{
										OFFSET 0.715260 -0.000000 -0.000000
										CHANNELS 3 Zrotation Yrotation Xrotation
										End Site
										{
											OFFSET 0.000000 0.000000 0.000000
										}
									}
								}
								JOINT LThumb
								{
									OFFSET 0.000000 0.000000 0.000000
									CHANNELS 3 Zrotation Yrotation Xrotation
									End Site
									{
										OFFSET 0.000000 0.000000 0.000000
									}
								}
							}
						}
					}
				}
				JOINT RightShoulder
				{
					OFFSET 0.000000 0.000000 0.000000
					CHANNELS 3 Zrotation Yrotation Xrotation
					JOINT RightArm
					{
						OFFSET -3.136600 1.374050 -0.404650
						CHANNELS 3 Zrotation Yrotation Xrotation
						JOINT RightForeArm
						{
							OFFSET -5.241900 -0.000000 -0.000000
							CHANNELS 3 Zrotation Yrotation Xrotation
							JOINT RightHand
							{
								OFFSET -3.444170 -0.000000 -0.000000
								CHANNELS 3 Zrotation Yrotation Xrotation
								JOINT RightFingerBase
								{
									OFFSET 0.000000 0.000000 0.000000
									CHANNELS 3 Zrotation Yrotation Xrotation
									JOINT RightHandIndex1
									{
										OFFSET -0.622530 -0.000000 -0.000000
										CHANNELS 3 Zrotation Yrotation Xrotation
										End Site
										{
											OFFSET 0.000000 0.000000 0.000000
										}
									}
								}
								JOINT RThumb
								{
									OFFSET 0.000000 0.000000 0.000000
									CHANNELS 3 Zrotation Yrotation Xrotation
									End Site
									{
										OFFSET 0.000000 0.000000 0.000000
									}
								}
							}
						}
					}
				}
			}
		}
	}
}
MOTION
Frames: 7
Frame Time: 0.008333
5.664579 17.005213 0.052046 11.494629 85.235973 37.097840 -9.079067 0.777964 6.306933 -10.462818 -6.088977 -50.913800 -3.402884 -0.657865 15.521509 0.302853 -0.129055 -5.569289 0.247000 -0.000000 -35.276100 10.218116 -5.284794 2.042487 5.414620 -4.060071 -0.656414 1.246620 -0.910223 9.018423 0.121007 8.019420 29.857896 4.674500 0.000000 -79.541700 -4.953681 1.252587 -9.379819 -1.640730 1.318212 -4.656329 -4.205292 1.178374 0.738182 8.563462 -5.357849 -6.217507 -0.860741 -0.087766 0.399737 0.000000 0.000000 0.000000 0.588323 16.412510 2.007012 -21.223128 -6.934265 -44.372050 -0.181312 -85.120216 -0.187825 21.757960 0.548309 0.010169 -0.431623 0.502137 0.000000 0.000000 0.000000 0.000000 0.000000 0.000000 0.000000 -0.354595 0.300505 -1.500810 30.254837 31.613144 -13.784899 -179.557286 87.604581 179.864549 -14.127552 7.729003 -1.049960 0.143318 -0.649535 -0.000000 0.000000 0.000000 0.000000 0.000000 0.000000 0.000000 
5.899475 16.928569 0.040460 9.351511 85.220334 34.825113 -9.195334 0.843970 6.297790 -10.303245 -6.206752 -52.157828 -3.148642 -0.188033 19.211929 0.326417 -0.028359 -5.449658 0.250400 0.000000 -33.496500 10.213445 -5.369193 2.069403 5.203996 -4.408540 -0.502086 1.194959 -0.977552 10.116097 0.129704 9.212018 30.420723 5.462300 0.000000 -79.514901 -5.055218 1.232964 -9.499288 -1.641071 1.298642 -4.672268 -4.135652 1.151916 0.787523 8.731602 -5.535035 -6.246128 -0.822111 -0.084528 0.392351 0.000000 0.000000 0.000000 0.552952 16.622205 1.965871 -21.950578 -6.301684 -45.599970 -0.175446 -85.710033 -0.192157 22.468565 0.367964 -0.025902 -0.439003 0.501967 0.000000 0.000000 0.000000 0.000000 0.000000 0.000000 0.000000 -0.401061 0.080529 -1.565611 29.237145 32.167360 -13.650412 -179.520195 86.744271 179.863942 -14.075041 7.687466 -1.041488 0.144126 -0.654165 -0.000000 0.000000 0.000000 0.000000 0.000000 0.000000 0.000000 
6.131707 16.852255 0.028882 7.124048 85.154025 32.439782 -9.319230 0.890710 6.258080 -10.151026 -6.250146 -53.319960 -2.866456 0.272144 23.081935 0.365752 0.096585 -5.545370 0.241300 -0.000000 -31.228400 10.206842 -5.436455 2.090649 4.968227 -4.773406 -0.450162 1.127586 -1.047852 11.431876 0.131103 10.455326 30.966700 6.295001 -0.000000 -79.182600 -5.134026 1.215122 -9.581140 -1.638184 1.280253 -4.679676 -4.074858 1.128047 0.833645 8.884000 -5.707649 -6.274516 -0.787869 -0.081580 0.384734 0.000000 0.000000 0.000000 0.490307 16.850924 1.932782 -22.748187 -5.682750 -46.653277 -0.170624 -86.250113 -0.195813 23.163672 0.219346 -0.057369 -0.445928 0.499999 0.000000 0.000000 0.000000 0.000000 0.000000 0.000000 0.000000 -0.446629 -0.133348 -1.644259 28.363451 32.761553 -13.490385 -179.478957 85.881517 179.862322 -14.120471 7.694044 -1.046612 0.146355 -0.659942 -0.000000 0.000000 0.000000 0.000000 0.000000 0.000000 0.000000 
6.360757 16.778316 0.017982 5.019082 85.025413 30.140828 -9.437701 0.917379 6.190651 -10.023984 -6.227851 -54.290837 -2.580990 0.689448 26.895441 0.423114 0.270321 -5.879640 0.221900 -0.000000 -28.792000 10.210599 -5.483955 2.096783 4.681149 -5.175085 -0.498215 1.040674 -1.120811 12.957326 0.118652 11.687513 31.508279 7.140000 0.000000 -78.489000 -5.208616 1.199372 -9.615395 -1.635826 1.265585 -4.676896 -4.021461 1.109519 0.874748 9.022304 -5.863149 -6.299366 -0.757584 -0.078934 0.377624 0.000000 0.000000 0.000000 0.419801 17.100661 1.907612 -23.659339 -5.097406 -47.530430 -0.166666 -86.717549 -0.198774 23.831138 0.120532 -0.079433 -0.451979 0.496165 0.000000 0.000000 0.000000 0.000000 0.000000 0.000000 0.000000 -0.495528 -0.327236 -1.737119 27.672467 33.372079 -13.289840 -179.432050 85.005897 179.859639 -14.268151 7.743374 -1.065030 0.150197 -0.666836 -0.000000 0.000000 0.000000 0.000000 0.000000 0.000000 0.000000 
6.586326 16.708877 0.008112 3.305920 84.837001 28.195203 -9.540842 0.925869 6.099425 -9.946608 -6.158845 -54.993588 -2.315343 1.043653 30.473110 0.500562 0.514700 -6.473415 0.192501 -0.000000 -26.518800 10.235464 -5.511958 2.079571 4.317046 -5.640563 -0.651017 0.933129 -1.196087 14.678899 0.085643 12.835992 32.067550 7.960000 0.000000 -77.422400 -5.295042 1.181373 -9.595977 -1.637271 1.252141 -4.662257 -3.976409 1.094054 0.912141 9.149105 -6.007187 -6.321047 -0.732248 -0.076652 0.370792 0.000000 0.000000 0.000000 0.329806 17.371321 1.889630 -24.683644 -4.555484 -48.237783 -0.163344 -87.099064 -0.200999 24.462975 0.106042 -0.083395 -0.456818 0.489913 0.000000 0.000000 0.000000 0.000000 0.000000 0.000000 0.000000 -0.537424 -0.509560 -1.842463 27.178754 34.012486 -13.022880 -179.379155 84.122639 179.855913 -14.515453 7.840597 -1.097639 0.155766 -0.674913 -0.000000 0.000000 0.000000 0.000000 0.000000 0.000000 0.000000 
6.808337 16.645718 -0.000410 2.185183 84.598259 26.805071 -9.624044 0.919028 5.987257 -9.947426 -6.054732 -55.391286 -2.087189 1.327403 33.702414 0.598303 0.836818 -7.338697 0.149300 -0.000000 -24.657000 10.286207 -5.523268 2.037662 3.861486 -6.176192 -0.911726 0.806768 -1.272836 16.572503 0.026811 13.792887 32.652648 8.691000 -0.000000 -75.992100 -5.411746 1.156591 -9.525555 -1.645738 1.237207 -4.635954 -3.938477 1.078858 0.947483 9.268248 -6.132972 -6.337558 -0.712479 -0.074812 0.364752 0.000000 0.000000 0.000000 0.233225 17.662417 1.877906 -25.850216 -4.074228 -48.773967 -0.160557 -87.377035 -0.202485 25.048630 0.197092 -0.062859 -0.460043 0.481102 0.000000 0.000000 0.000000 0.000000 0.000000 0.000000 0.000000 -0.565561 -0.675951 -1.958166 26.896185 34.670294 -12.665651 -179.320258 83.229026 179.851337 -14.842196 7.987442 -1.143539 0.162851 -0.684146 -0.000000 0.000000 0.000000 0.000000 0.000000 0.000000 0.000000 
7.026776 16.590200 -0.007532 1.751395 84.317043 26.064805 -9.686015 0.900125 5.855475 -10.047457 -5.925830 -55.467508 -1.905739 1.541323 36.522144 0.717316 1.242859 -8.471718 0.085300 0.000000 -23.333799 10.363117 -5.519580 1.970284 3.305730 -6.781718 -1.273834 0.665631 -1.350398 18.608383 -0.060617 14.443424 33.263523 9.259101 0.000000 -74.243000 -5.570346 1.122218 -9.405810 -1.663222 1.219108 -4.597780 -3.906799 1.062204 0.983302 9.381951 -6.241614 -6.348304 -0.698884 -0.073470 0.359665 0.000000 0.000000 0.000000 0.129920 17.971207 1.871219 -27.168439 -3.663415 -49.140199 -0.158228 -87.539022 -0.203215 25.578711 0.417105 -0.010724 -0.461296 0.469498 0.000000 0.000000 0.000000 0.000000 0.000000 0.000000 0.000000 -0.571866 -0.829577 -2.080553 26.823625 35.346523 -12.194611 -179.256518 82.330864 179.846207 -15.217019 8.188788 -1.201929 0.171019 -0.694554 -0.000000 0.000000 0.000000 0.000000 0.000000 0.000000 0.000000 
